<svg width="80vw" height="auto" viewBox="0 0 544 338" fill="none" xmlns="http://www.w3.org/2000/svg"><g clip-path="url(#clip0)"><path d="M110.513 115.984H6.27604C5.20785 115.983 4.18382 115.558 3.42892 114.802C2.67402 114.046 2.25 113.021 2.25 111.953C2.2512 110.885 2.67576 109.861 3.43053 109.107C4.18529 108.352 5.20864 107.927 6.27604 107.926H110.513C111.581 107.926 112.606 108.35 113.362 109.105C114.117 109.86 114.543 110.884 114.544 111.953C114.544 113.022 114.119 114.047 113.363 114.803C112.607 115.559 111.582 115.984 110.513 115.984Z" fill="#52CFC7"></path><path d="M302.616 8.24869H234.704C233.61 8.24869 232.562 7.81451 231.788 7.04161C231.015 6.2687 230.579 5.22024 230.578 4.12659C230.579 3.03251 231.014 1.98359 231.788 1.20996C232.561 0.436333 233.61 0.0012003 234.704 0H302.616C303.71 0 304.76 0.4348 305.533 1.20869C306.307 1.98257 306.742 3.03214 306.742 4.12659C306.742 4.66828 306.635 5.2047 306.428 5.7051C306.22 6.20551 305.916 6.66011 305.533 7.04293C305.15 7.42576 304.695 7.72932 304.195 7.93621C303.694 8.14309 303.158 8.24928 302.616 8.24869Z" fill="#52CFC7"></path><path d="M52.6943 146.494H40.7114C37.5614 146.494 35.0078 149.048 35.0078 152.199V163.445C35.0078 166.596 37.5614 169.15 40.7114 169.15H52.6943C55.8442 169.15 58.3978 166.596 58.3978 163.445V152.199C58.3978 149.048 55.8442 146.494 52.6943 146.494Z" fill="#146FAD"></path><path d="M518.546 94.4316H512.009C510.291 94.4316 508.898 95.8244 508.898 97.5425V103.682C508.898 105.401 510.291 106.793 512.009 106.793H518.546C520.264 106.793 521.657 105.401 521.657 103.682V97.5425C521.657 95.8244 520.264 94.4316 518.546 94.4316Z" fill="#146FAD"></path><path d="M423.901 59.1523H113.234C109.636 59.1523 106.719 62.0698 106.719 65.6687V324.474C106.719 328.073 109.636 330.991 113.234 330.991H423.901C427.499 330.991 430.416 328.073 430.416 324.474V65.6687C430.416 62.0698 427.499 59.1523 423.901 59.1523Z" fill="#B9E4DE"></path><path d="M106.719 91.8633H430.416" stroke="#FEFEF4" stroke-width="1.43391" stroke-miterlimit="10"></path><path d="M423.901 59.1523H113.234C109.636 59.1523 106.719 62.0698 106.719 65.6687V324.474C106.719 328.073 109.636 330.991 113.234 330.991H423.901C427.499 330.991 430.416 328.073 430.416 324.474V65.6687C430.416 62.0698 427.499 59.1523 423.901 59.1523Z" stroke="#FEFEF4" stroke-width="1.43391" stroke-miterlimit="10"></path><path d="M123.202 80.4103C125.724 80.4103 127.768 78.3658 127.768 75.8438C127.768 73.3218 125.724 71.2773 123.202 71.2773C120.681 71.2773 118.637 73.3218 118.637 75.8438C118.637 78.3658 120.681 80.4103 123.202 80.4103Z" stroke="#FEFEF4" stroke-width="1.43391" stroke-miterlimit="10"></path><path d="M140.937 80.4103C143.458 80.4103 145.502 78.3658 145.502 75.8438C145.502 73.3218 143.458 71.2773 140.937 71.2773C138.415 71.2773 136.371 73.3218 136.371 75.8438C136.371 78.3658 138.415 80.4103 140.937 80.4103Z" stroke="#FEFEF4" stroke-width="1.43391" stroke-miterlimit="10"></path><path d="M158.675 80.4103C161.196 80.4103 163.241 78.3658 163.241 75.8438C163.241 73.3218 161.196 71.2773 158.675 71.2773C156.153 71.2773 154.109 73.3218 154.109 75.8438C154.109 78.3658 156.153 80.4103 158.675 80.4103Z" stroke="#FEFEF4" stroke-width="1.43391" stroke-miterlimit="10"></path><path d="M173.922 202.141H9.43036C4.22211 202.141 0 206.364 0 211.573V272.565C0 277.774 4.22211 281.997 9.43036 281.997H173.922C179.13 281.997 183.352 277.774 183.352 272.565V211.573C183.352 206.364 179.13 202.141 173.922 202.141Z" fill="#81DAD2"></path><path d="M17.02 216.969C17.0209 217.656 16.818 218.328 16.4369 218.9C16.0559 219.472 15.5138 219.918 14.8793 220.181C14.2448 220.445 13.5463 220.514 12.8724 220.381C12.1984 220.247 11.5792 219.917 11.093 219.431C10.6069 218.946 10.2757 218.327 10.1413 217.653C10.0069 216.979 10.0754 216.28 10.3381 215.645C10.6009 215.01 11.046 214.468 11.6172 214.086C12.1884 213.704 12.8601 213.5 13.5471 213.5C14.4674 213.5 15.3501 213.865 16.0012 214.516C16.6524 215.166 17.0188 216.049 17.02 216.969V216.969Z" stroke="#FEFEF4" stroke-width="1.09391" stroke-miterlimit="10"></path><path d="M27.0432 220.443C28.9613 220.443 30.5161 218.888 30.5161 216.97C30.5161 215.051 28.9613 213.496 27.0432 213.496C25.1252 213.496 23.5703 215.051 23.5703 216.97C23.5703 218.888 25.1252 220.443 27.0432 220.443Z" stroke="#FEFEF4" stroke-width="1.09391" stroke-miterlimit="10"></path><path d="M40.5354 220.443C42.4534 220.443 44.0083 218.888 44.0083 216.97C44.0083 215.051 42.4534 213.496 40.5354 213.496C38.6174 213.496 37.0625 215.051 37.0625 216.97C37.0625 218.888 38.6174 220.443 40.5354 220.443Z" stroke="#FEFEF4" stroke-width="1.09391" stroke-miterlimit="10"></path><path d="M0 230.115H183.352" stroke="#FEFEF4" stroke-width="1.09391" stroke-miterlimit="10"></path><path d="M469.539 18.9336H395.751C389.591 18.9336 384.598 23.928 384.598 30.089V89.6208C384.598 95.7818 389.591 100.776 395.751 100.776H469.539C475.699 100.776 480.692 95.7818 480.692 89.6208V30.089C480.692 23.928 475.699 18.9336 469.539 18.9336Z" fill="#81DAD2"></path><path d="M426.576 69.1628C423.291 69.1628 420.08 68.1885 417.349 66.3631C414.618 64.5377 412.489 61.9432 411.232 58.9077C409.976 55.8722 409.647 52.5322 410.288 49.3099C410.929 46.0876 412.511 43.1278 414.835 40.8049C417.158 38.4821 420.117 36.9005 423.339 36.26C426.561 35.6196 429.9 35.9492 432.935 37.2071C435.969 38.465 438.563 40.5948 440.387 43.327C442.211 46.0592 443.184 49.2712 443.184 52.5566C443.179 56.9602 441.427 61.1819 438.314 64.2953C435.2 67.4086 430.979 69.1592 426.576 69.1628ZM426.576 39.6871C424.036 39.6871 421.552 40.4405 419.44 41.8522C417.328 43.2638 415.682 45.2702 414.71 47.6177C413.737 49.9651 413.483 52.5482 413.979 55.0403C414.474 57.5323 415.698 59.8214 417.494 61.6181C419.29 63.4147 421.579 64.6383 424.07 65.134C426.562 65.6297 429.144 65.3753 431.491 64.4029C433.838 63.4306 435.844 61.784 437.256 59.6713C438.667 57.5587 439.42 55.0748 439.42 52.5339C439.411 49.1318 438.054 45.8721 435.647 43.4685C433.239 41.0649 429.978 39.7134 426.576 39.7098V39.6871Z" fill="#FEFEF4"></path><path d="M438.298 61.657L435.637 64.3184L440.539 69.2212L443.199 66.5598L438.298 61.657Z" fill="#FEFEF4"></path><path d="M439.843 71.7466L449.544 81.4495C450.572 82.4784 452.24 82.4784 453.269 81.4495L455.426 79.2915C456.455 78.2626 456.455 76.5944 455.426 75.5655L445.725 65.8626C444.697 64.8337 443.029 64.8336 442 65.8625L439.843 68.0205C438.814 69.0494 438.814 70.7177 439.843 71.7466Z" fill="#FEFEF4"></path><path d="M78.555 13.3906H36.1456C29.0343 13.3906 23.2695 19.1566 23.2695 26.2692V62.2386C23.2695 69.3513 29.0343 75.1173 36.1456 75.1173H78.555C85.6662 75.1173 91.431 69.3513 91.431 62.2386V26.2692C91.431 19.1566 85.6662 13.3906 78.555 13.3906Z" fill="#146FAD"></path><path d="M57.3471 57.5522C54.4909 57.5531 51.6986 56.7068 49.3233 55.1203C46.948 53.5338 45.0965 51.2784 44.0028 48.6394C42.9092 46.0003 42.6226 43.0962 43.1793 40.2942C43.7359 37.4922 45.1109 34.9183 47.1302 32.8979C49.1495 30.8776 51.7225 29.5015 54.5238 28.9439C57.325 28.3862 60.2287 28.672 62.8676 29.765C65.5064 30.858 67.762 32.7092 69.3489 35.0845C70.9358 37.4597 71.7828 40.2524 71.7828 43.1091C71.778 46.9374 70.2557 50.6076 67.5497 53.315C64.8436 56.0225 61.1746 57.5462 57.3471 57.5522ZM57.3471 33.0057C55.3489 33.004 53.395 33.595 51.7326 34.7041C50.0703 35.8131 48.7742 37.3904 48.0082 39.2364C47.2423 41.0824 47.0409 43.1142 47.4297 45.0746C47.8184 47.0351 48.7798 48.8361 50.1921 50.25C51.6044 51.6639 53.4043 52.6271 55.364 53.0176C57.3237 53.4082 59.3553 53.2087 61.2016 52.4443C63.0479 51.6798 64.626 50.3849 65.7364 48.7232C66.8467 47.0615 67.4394 45.1078 67.4394 43.1091C67.4394 40.4303 66.3767 37.8609 64.4845 35.9649C62.5924 34.069 60.0254 33.0015 57.3471 32.9967V33.0057Z" fill="#FEFEF4"></path><path fill-rule="evenodd" clip-rule="evenodd" d="M47.0117 51.3409L63.5692 31.1387L68.1453 34.8777L51.5878 55.0798L47.0117 51.3409Z" fill="#FEFEF4"></path><path d="M532.115 153.83H378.481C371.916 153.83 366.594 159.153 366.594 165.72V280.381C366.594 286.947 371.916 292.271 378.481 292.271H532.115C538.68 292.271 544.002 286.947 544.002 280.381V165.72C544.002 159.153 538.68 153.83 532.115 153.83Z" fill="#146FAD"></path><path d="M424.344 236.476H430.238L428.175 245.546H422.213L420.291 254.003H409.636L411.559 245.546H388.051L390.386 235.37L416.922 207.939H430.945L424.344 236.476ZM413.69 236.476L417.883 218.392L401.108 236.476H413.69Z" fill="white"></path><path d="M474.799 230.976C472.183 245.138 464.212 255.037 451.495 255.037C439.671 255.037 431.424 245.759 434.171 230.976C436.783 216.882 444.758 206.91 457.543 206.91C469.589 206.91 477.546 216.401 474.799 230.976ZM463.387 230.976C465.037 222.315 462.562 216.882 457.13 216.882C451.699 216.882 447.233 222.383 445.583 230.976C443.932 239.773 446.544 245.07 451.93 245.07C457.348 245.07 461.805 239.569 463.387 230.976Z" fill="white"></path><path d="M510.201 236.476H516.095L514.037 245.546H508.057L506.13 254.003H495.476L497.402 245.546H473.895L476.229 235.37L502.761 207.939H516.785L510.201 236.476ZM499.547 236.476L503.736 218.392L486.961 236.476H499.547Z" fill="white"></path><path d="M380.414 170.592C379.684 170.592 378.969 170.377 378.362 169.971C377.754 169.566 377.28 168.99 377.001 168.315C376.721 167.64 376.647 166.898 376.789 166.181C376.932 165.465 377.283 164.807 377.8 164.29C378.316 163.774 378.974 163.422 379.69 163.28C380.407 163.137 381.149 163.211 381.824 163.491C382.498 163.771 383.075 164.245 383.48 164.852C383.885 165.46 384.101 166.174 384.1 166.905C384.099 167.882 383.71 168.819 383.019 169.51C382.328 170.202 381.391 170.59 380.414 170.592ZM380.414 163.862C379.812 163.861 379.223 164.039 378.722 164.373C378.222 164.706 377.831 165.181 377.6 165.737C377.369 166.293 377.308 166.905 377.425 167.496C377.542 168.086 377.831 168.629 378.257 169.055C378.682 169.481 379.224 169.771 379.814 169.889C380.404 170.007 381.016 169.947 381.572 169.716C382.129 169.486 382.604 169.096 382.938 168.596C383.273 168.095 383.452 167.507 383.452 166.905C383.45 166.099 383.13 165.326 382.561 164.756C381.991 164.186 381.22 163.864 380.414 163.862Z" fill="#FEFEF4"></path><path d="M393.484 170.592C392.754 170.592 392.04 170.377 391.432 169.971C390.824 169.566 390.351 168.99 390.071 168.315C389.791 167.64 389.717 166.898 389.86 166.181C390.002 165.465 390.354 164.807 390.87 164.29C391.386 163.774 392.044 163.422 392.761 163.28C393.477 163.137 394.219 163.211 394.894 163.491C395.569 163.771 396.145 164.245 396.55 164.852C396.955 165.46 397.171 166.174 397.17 166.905C397.169 167.882 396.78 168.819 396.089 169.51C395.398 170.202 394.461 170.59 393.484 170.592ZM393.484 163.862C392.882 163.861 392.294 164.039 391.793 164.373C391.292 164.706 390.901 165.181 390.67 165.737C390.439 166.293 390.378 166.905 390.495 167.496C390.612 168.086 390.902 168.629 391.327 169.055C391.752 169.481 392.294 169.771 392.884 169.889C393.475 170.007 394.087 169.947 394.643 169.716C395.199 169.486 395.674 169.096 396.009 168.596C396.343 168.095 396.522 167.507 396.522 166.905C396.522 166.099 396.202 165.325 395.632 164.755C395.063 164.184 394.29 163.863 393.484 163.862Z" fill="#FEFEF4"></path><path d="M406.57 170.592C405.84 170.592 405.126 170.377 404.518 169.971C403.91 169.566 403.437 168.99 403.157 168.315C402.877 167.64 402.803 166.898 402.946 166.181C403.088 165.465 403.44 164.807 403.956 164.29C404.472 163.774 405.13 163.422 405.847 163.28C406.563 163.137 407.305 163.211 407.98 163.491C408.654 163.771 409.231 164.245 409.636 164.852C410.041 165.46 410.257 166.174 410.256 166.905C410.254 167.882 409.865 168.818 409.174 169.509C408.483 170.2 407.547 170.589 406.57 170.592ZM406.57 163.862C405.968 163.861 405.38 164.039 404.879 164.373C404.378 164.706 403.987 165.181 403.756 165.737C403.525 166.293 403.464 166.905 403.581 167.496C403.698 168.086 403.988 168.629 404.413 169.055C404.838 169.481 405.38 169.771 405.97 169.889C406.561 170.007 407.173 169.947 407.729 169.716C408.285 169.486 408.76 169.096 409.095 168.596C409.429 168.095 409.608 167.507 409.608 166.905C409.607 166.099 409.286 165.326 408.717 164.756C408.148 164.186 407.376 163.864 406.57 163.862Z" fill="#FEFEF4"></path><path d="M544.002 180.605H366.594V181.254H544.002V180.605Z" fill="#FEFEF4"></path><path d="M285.483 234.339L284.807 225.197L227.826 227.991V236.811C227.826 236.811 215.009 249.009 209.949 330.144H312.518C312.518 330.144 323.771 258.337 285.483 234.339Z" fill="#146FAD"></path><path d="M227.824 236.813L285.481 234.332" stroke="black" stroke-width="1.14565" stroke-miterlimit="10"></path><path d="M239.609 274.225L251.42 279.031L257.74 330.147" stroke="black" stroke-width="1.14565" stroke-miterlimit="10"></path><path d="M165.531 216.655L181.273 164.678L215.898 177.661L199.286 227.443C197.834 231.894 194.681 235.589 190.514 237.723C186.348 239.856 181.506 240.253 177.048 238.828C172.589 237.403 168.875 234.272 166.718 230.117C164.56 225.963 164.133 221.123 165.531 216.655Z" fill="#E58B4E"></path><path d="M189.811 136.926C190.55 134.561 191.748 132.366 193.338 130.466C194.928 128.566 196.878 127 199.076 125.857C201.273 124.714 203.675 124.017 206.143 123.806C208.611 123.596 211.097 123.875 213.456 124.629C215.816 125.383 218.003 126.596 219.892 128.199C221.781 129.801 223.334 131.762 224.463 133.967C225.591 136.173 226.272 138.579 226.467 141.049C226.661 143.519 226.366 146.003 225.597 148.358L215.894 177.666L181.27 164.683L189.811 136.926Z" fill="#FEFEF4"></path><path d="M192.267 212.761L152.719 137.752C152.719 137.752 153.626 124.202 131.115 123.39V123.413C130.811 123.413 130.503 123.368 130.208 123.368H122.678C121.996 123.355 121.332 123.587 120.807 124.022C120.282 124.458 119.931 125.067 119.817 125.739C119.761 126.107 119.78 126.481 119.872 126.841C119.963 127.201 120.126 127.539 120.351 127.835C120.575 128.131 120.856 128.379 121.178 128.564C121.5 128.749 121.856 128.868 122.224 128.914L129.814 129.988L119.49 132.764L117.563 133.476L103.509 124.184C103.028 123.815 102.42 123.652 101.819 123.731C101.217 123.81 100.672 124.125 100.303 124.606C99.934 125.087 99.7711 125.695 99.8502 126.296C99.9292 126.897 100.244 127.442 100.725 127.812C101.591 128.533 102.992 129.734 104.511 131.049L101.409 129.19C101.159 129.027 100.879 128.914 100.585 128.859C100.291 128.804 99.9895 128.807 99.6969 128.869C99.4043 128.93 99.1266 129.049 98.8798 129.217C98.633 129.386 98.4219 129.602 98.2584 129.852C98.095 130.103 97.9825 130.383 97.9273 130.677C97.8721 130.971 97.8754 131.273 97.9368 131.565C97.9983 131.858 98.1168 132.136 98.2855 132.382C98.4543 132.629 98.67 132.841 98.9204 133.004C99.6775 133.544 100.652 134.228 101.691 134.958L100.611 134.537C100.038 134.297 99.4017 134.257 98.8028 134.421C98.2039 134.585 97.6772 134.945 97.3063 135.444C97.0787 135.772 96.9273 136.146 96.863 136.541C96.7988 136.935 96.8234 137.338 96.9351 137.721C97.0468 138.105 97.2427 138.458 97.5085 138.756C97.7744 139.054 98.1034 139.289 98.4715 139.443L113.832 145.874C116.484 146.985 119.019 147.687 122.138 146.939L135.83 143.71L166.47 229.489L192.267 212.761Z" fill="#E58B4E"></path><path d="M176.035 181.979L183.353 195.855" stroke="#C4733B" stroke-width="1.47826" stroke-miterlimit="10"></path><path d="M220.594 123.847L205.895 124.945C205.895 124.945 184.609 153.822 227.82 227.992L284.802 225.189L289.095 145.283L282.059 122.609H256.529L220.594 123.847Z" fill="#FEFEF4"></path><path d="M203.912 173.172C203.912 173.172 199.673 164.252 202.398 144.494" stroke="#FCE7E4" stroke-width="1.14565" stroke-miterlimit="10"></path><path d="M336.185 206.224L312.518 157.344L280.328 175.573L304.512 222.145C306.665 226.269 310.354 229.381 314.782 230.808C319.209 232.236 324.021 231.864 328.177 229.774C332.333 227.683 335.5 224.042 336.995 219.636C338.49 215.23 338.193 210.412 336.167 206.224H336.185Z" fill="#E58B4E"></path><path d="M299.747 131.261C298.674 128.999 297.16 126.974 295.294 125.305C293.427 123.637 291.246 122.358 288.878 121.545C286.511 120.731 284.004 120.399 281.507 120.568C279.009 120.738 276.57 121.404 274.334 122.53C272.097 123.655 270.109 125.216 268.484 127.121C266.86 129.027 265.632 131.237 264.874 133.624C264.116 136.01 263.843 138.524 264.07 141.017C264.297 143.511 265.02 145.934 266.197 148.144L280.356 175.575L312.546 157.345L299.747 131.261Z" fill="#FEFEF4"></path><path d="M280.344 175.575L268.656 152.924" stroke="#FCE7E4" stroke-width="1.14565" stroke-miterlimit="10"></path><path d="M385.577 122.602C385.206 122.104 384.68 121.744 384.081 121.579C383.482 121.415 382.845 121.456 382.272 121.695L375.399 124.38L381.855 118.938C382.378 118.508 382.725 117.901 382.829 117.231C382.933 116.562 382.786 115.878 382.417 115.31C382.207 115.008 381.937 114.751 381.624 114.558C381.311 114.364 380.961 114.237 380.597 114.184C380.232 114.131 379.861 114.154 379.505 114.251C379.15 114.348 378.819 114.517 378.532 114.748L372.524 119.586L377.647 112.893C378.071 112.358 378.282 111.685 378.238 111.004C378.195 110.323 377.9 109.683 377.412 109.206C377.142 108.957 376.823 108.765 376.476 108.643C376.129 108.521 375.76 108.473 375.393 108.499C375.026 108.526 374.669 108.628 374.343 108.799C374.017 108.97 373.73 109.206 373.499 109.492L363.389 119.985L353.065 117.228L360.655 116.158C361.023 116.111 361.378 115.992 361.699 115.806C362.02 115.62 362.301 115.373 362.525 115.077C362.749 114.781 362.912 114.444 363.005 114.085C363.097 113.725 363.116 113.351 363.062 112.984C362.948 112.312 362.597 111.703 362.072 111.269C361.546 110.834 360.883 110.603 360.201 110.617H352.68C348.239 110.582 343.941 112.185 340.606 115.12C340.552 115.16 340.502 115.188 340.447 115.233C335.827 118.861 337.51 126.339 337.51 126.339L309.164 206.603L337.274 219.065L353.469 132.878H363.81C364.451 132.934 365.096 132.934 365.737 132.878H365.81C366.931 132.783 368.031 132.514 369.069 132.08L384.43 126.638C384.802 126.482 385.134 126.245 385.401 125.943C385.668 125.642 385.864 125.284 385.974 124.896C386.085 124.508 386.106 124.101 386.037 123.704C385.969 123.307 385.811 122.93 385.577 122.602Z" fill="#E58B4E"></path><path d="M320.183 173.17L314.062 194.542" stroke="#C4733B" stroke-width="1.47826" stroke-miterlimit="10"></path><path d="M219.456 57.6405C217.688 58.8558 205.805 61.944 205.569 64.098C205.569 64.098 209.477 79.38 205.474 82.2369C194.656 89.9459 191.188 105.06 191.188 105.06C191.188 105.06 219.751 126.446 295.629 103.994C295.629 103.994 296.535 94.8978 282.734 88.2998C278.795 86.4133 275.294 83.5746 273.082 79.7201C271.368 76.7317 271.105 75.462 270.652 72.782C269.378 65.2861 248.704 37.5698 219.456 57.6405Z" fill="black"></path><path d="M220.575 80.5445C220.7 82.3403 220.29 84.1328 219.396 85.6952C218.502 87.2577 217.165 88.52 215.554 89.3225C213.943 90.125 212.13 90.4316 210.345 90.2036C208.56 89.9756 206.882 89.2232 205.525 88.0415C204.167 86.8599 203.19 85.3021 202.718 83.5651C202.245 81.8281 202.298 79.99 202.87 78.2832C203.442 76.5765 204.507 75.0776 205.931 73.9764C207.355 72.8751 209.073 72.2208 210.868 72.0963C212.06 72.0131 213.257 72.1656 214.39 72.5451C215.523 72.9247 216.571 73.5239 217.472 74.3085C218.374 75.0931 219.112 76.0477 219.644 77.1177C220.177 78.1877 220.493 79.3521 220.575 80.5445Z" fill="#C4733B"></path><path d="M224.688 102.834L225.948 122.633C226.374 129.584 229.217 134.319 236.058 133.842C241.893 133.439 248.839 128.759 249.161 122.914L245.679 91.8555L224.688 102.834Z" fill="#E58B4E"></path><path d="M220.598 123.847L256.533 122.596C256.533 122.596 255.658 140.281 234.318 138.612C219.456 137.461 220.598 123.847 220.598 123.847Z" fill="#E58B4E"></path><path d="M225.729 119.152L248.698 96.6914L224.523 100.813L225.729 119.152Z" fill="#C4733B"></path><path d="M230.715 106.039C219.022 106.075 209.365 96.8648 209.016 87.3147L208.327 64.7725C208.121 59.0158 210.158 53.4041 214.009 49.1208C217.86 44.8376 223.224 42.2175 228.969 41.8132C241.211 40.9607 253.946 50.0393 254.812 62.274L255.17 80.4129C255.433 94.4297 244.715 105.068 230.715 106.039Z" fill="#E58B4E"></path><path d="M221.277 79.3789L220.602 84.9748L223.49 85.079" stroke="black" stroke-width="0.916522" stroke-linecap="round" stroke-linejoin="round"></path><path d="M232.829 65.7216C232.829 65.7216 226.369 65.191 226.301 67.8212C226.301 67.8212 226.301 69.5988 231.945 69.9525C237.59 70.3062 239.045 69.8935 239.562 68.2202C240.079 66.5469 235.858 65.7352 232.829 65.7216Z" fill="black"></path><path d="M214.097 69.5638C214.097 69.5638 218.994 69.1693 219.452 71.5318C219.452 71.5318 219.728 73.1326 215.439 73.3775C211.15 73.6224 209.826 73.0918 209.749 71.7405C209.654 70.1261 211.767 69.5366 214.097 69.5638Z" fill="black"></path><path d="M216.938 77.2451C216.952 77.6537 216.843 78.0571 216.627 78.4043C216.412 78.7515 216.098 79.0269 215.725 79.1956C215.353 79.3643 214.939 79.4188 214.535 79.3522C214.132 79.2856 213.757 79.1009 213.459 78.8214C213.161 78.542 212.952 78.1803 212.859 77.7821C212.766 77.3839 212.793 76.9671 212.937 76.5844C213.081 76.2017 213.335 75.8701 213.667 75.6318C213.999 75.3934 214.394 75.259 214.803 75.2453C215.075 75.2362 215.345 75.2807 215.6 75.3763C215.854 75.4719 216.087 75.6168 216.285 75.8025C216.483 75.9882 216.643 76.2112 216.755 76.4587C216.867 76.7063 216.93 76.9735 216.938 77.2451Z" fill="black"></path><path d="M234.286 76.6766C234.299 77.0852 234.191 77.4886 233.975 77.8358C233.759 78.183 233.445 78.4584 233.073 78.6271C232.7 78.7958 232.286 78.8503 231.883 78.7837C231.48 78.7171 231.105 78.5324 230.807 78.2529C230.508 77.9735 230.299 77.6118 230.206 77.2136C230.114 76.8154 230.141 76.3986 230.285 76.0159C230.428 75.6332 230.682 75.3016 231.015 75.0633C231.347 74.8249 231.742 74.6905 232.151 74.6768C232.699 74.6597 233.231 74.8605 233.632 75.2354C234.032 75.6102 234.267 76.1284 234.286 76.6766Z" fill="black"></path><path d="M228.255 88.9726C228.255 88.9726 225.199 87.5805 221.504 90.7865" stroke="black" stroke-width="0.916522" stroke-linecap="round" stroke-linejoin="round"></path><path d="M236.207 37.9434C233.285 37.7885 230.357 38.0945 227.53 38.8504C220.529 40.7141 207.948 45.9018 205.795 59.3563C205.078 62.9025 205.572 64.0906 205.572 64.0906C205.572 64.0906 229.067 64.9976 242.954 58.4585C244.953 66.9203 246.798 72.1579 255.159 80.3975L262.576 69.2421L270.932 76.7379C270.986 77.0281 270.977 39.8026 236.207 37.9434Z" fill="black"></path><path d="M267.337 80.6366C267.462 82.4322 267.051 84.2245 266.158 85.7868C265.264 87.3491 263.928 88.6114 262.317 89.4139C260.706 90.2164 258.894 90.5232 257.108 90.2955C255.323 90.0679 253.646 89.3159 252.288 88.1347C250.93 86.9535 249.953 85.3961 249.48 83.6595C249.007 81.9228 249.06 80.0849 249.631 78.3781C250.202 76.6713 251.267 75.1723 252.69 74.0705C254.113 72.9688 255.83 72.3138 257.626 72.1884C258.818 72.1045 260.015 72.2566 261.149 72.6359C262.283 73.0152 263.33 73.6143 264.232 74.3989C265.134 75.1835 265.873 76.1383 266.405 77.2086C266.938 78.2789 267.255 79.4438 267.337 80.6366Z" fill="#E58B4E"></path><path d="M254.788 83.87C254.788 83.87 254.335 77.2856 260.682 77.8842" stroke="#C4733B" stroke-width="1.47826" stroke-miterlimit="10"></path><path d="M49.0908 310.791H48.9775C48.8076 310.804 48.6409 310.844 48.4833 310.909L24.5039 320.141C24.2005 320.257 23.9399 320.463 23.757 320.732C23.574 321 23.4776 321.318 23.4805 321.643C23.4835 321.968 23.5857 322.284 23.7735 322.549C23.9613 322.814 24.2257 323.015 24.5311 323.125L34.6642 326.807L38.3502 336.947C38.4599 337.252 38.6605 337.515 38.9249 337.701C39.1893 337.888 39.5047 337.989 39.8282 337.99C40.149 337.991 40.4624 337.894 40.7271 337.712C40.9918 337.531 41.1953 337.274 41.3108 336.974L50.528 313.031C50.6404 312.789 50.69 312.522 50.6725 312.255C50.6551 311.989 50.571 311.731 50.4279 311.505C50.2849 311.279 50.0875 311.093 49.8539 310.964C49.6203 310.834 49.3579 310.765 49.0908 310.764V310.791Z" fill="#B9E4DE"></path></g><defs><clipPath id="clip0"><rect width="544" height="338" fill="white"></rect></clipPath></defs></svg>