<svg xmlns="http://www.w3.org/2000/svg" width="230" height="130" viewBox="0 0 223 132" alt="Cart"><g fill="none" fill-rule="evenodd"><g><g transform="translate(-1055 -228) translate(1055 228)"><path fill="#B3B3B3" d="M122.856 31.674c3.992 0 7.227 3.232 7.227 7.219s-3.235 7.219-7.227 7.219h66.075c3.99 0 7.226 3.231 7.226 7.218s-3.235 7.219-7.226 7.219h22.713c3.99 0 7.226 3.232 7.226 7.219s-3.235 7.219-7.226 7.219h-19.616c-3.992 0-7.227 3.231-7.227 7.218s3.235 7.219 7.227 7.219h6.194c3.992 0 7.227 3.232 7.227 7.219s-3.235 7.219-7.227 7.219h-53.685c-.532 0-1.05-.058-1.549-.167-.498.11-1.017.167-1.548.167H47.49c-3.99 0-7.226-3.232-7.226-7.22 0-3.986 3.235-7.218 7.227-7.218H7.227C3.236 89.424 0 86.192 0 82.205s3.236-7.218 7.227-7.218h41.296c3.991 0 7.227-3.232 7.227-7.22 0-3.986-3.236-7.218-7.227-7.218h-25.81c-3.991 0-7.227-3.232-7.227-7.219s3.236-7.218 7.227-7.218h41.296c-3.991 0-7.227-3.232-7.227-7.22 0-3.986 3.236-7.218 7.227-7.218h58.847zm92.917 57.75c3.991 0 7.227 3.232 7.227 7.219s-3.236 7.219-7.227 7.219-7.227-3.232-7.227-7.22c0-3.986 3.236-7.218 7.227-7.218z" opacity=".1"></path><path fill="#F2F2F2" d="M81.56 33L150.731 33 144.537 42.281 152.796 48.469 79.495 48.469 88.787 42.281z"></path><path stroke="#D9D9D9" stroke-linecap="round" stroke-linejoin="round" stroke-width="2.581" d="M54.718 114.984h22.149m-35.439 0h7.095m140.54 0h2.965m-30.972 0h23.154"></path><path fill="#FFF" stroke="#D9D9D9" stroke-linecap="round" stroke-width="2.581" d="M78.47 92.003V50.53c0-1.708 1.403-3.093 3.135-3.093h71.73c1.128 0 2.042.923 2.042 2.062v75.281c0 2.278-1.828 4.125-4.083 4.125H82.552c-2.255 0-4.083-1.847-4.083-4.125v-19.593m0-4.231v-4.645m.022 8.418V91.687"></path><path stroke="#D9D9D9" stroke-width="2.581" d="M80.528 47.437V35.062c0-1.139.83-2.062 1.853-2.062h68.562c1.024 0 1.853.923 1.853 2.063v12.374"></path><ellipse cx="99.627" cy="65.484" fill="#FFF" stroke="#D9D9D9" stroke-width="2.581" rx="3.613" ry="3.609"></ellipse><ellipse cx="133.697" cy="65.484" fill="#FFF" stroke="#D9D9D9" stroke-width="2.581" rx="3.613" ry="3.609"></ellipse><path stroke="#D9D9D9" stroke-linecap="round" stroke-width="2.581" d="M133.18 69.094c0 9.112-7.395 16.5-16.518 16.5-9.123 0-16.518-7.388-16.518-16.5M81.623 34.028l7.336 7.233c.406.4.41 1.054.01 1.46-.07.07-.149.13-.236.178l-8.205 4.538h0M151.876 34.103l-7.02 7.152c-.4.407-.394 1.06.013 1.46.068.067.145.124.23.17l8.354 4.553h0"></path><path stroke="#D9D9D9" stroke-linecap="round" stroke-linejoin="round" stroke-width="2.581" d="M143.607 7.53l-11.459 12.843m-15.486-17.28v17.28M89.819 7.531l11.46 12.842"></path></g></g></g></svg>