<svg xmlns="http://www.w3.org/2000/svg" width="240" height="189" viewBox="0 0 320 189" alt="No orders"><defs><path id="se15e0ln4a" d="M0.004 0.439L14.752 0.439 14.752 4.448 0.004 4.448z"></path><path id="u8lytpv2uc" d="M0.004 0.447L14.752 0.447 14.752 4.456 0.004 4.456z"></path></defs><g fill="none" fill-rule="evenodd"><g><g><g><path fill="#B3B3B3" d="M271.111 51.68c5.728 0 10.37 4.627 10.37 10.336 0 5.708-4.642 10.336-10.37 10.336h32.593c5.727 0 10.37 4.627 10.37 10.335 0 5.709-4.643 10.336-10.37 10.336h-28.148c-5.728 0-10.37 4.628-10.37 10.336 0 5.709 4.642 10.336 10.37 10.336h8.888c5.728 0 10.37 4.628 10.37 10.336 0 5.709-4.642 10.336-10.37 10.336h-77.037c-.762 0-1.506-.082-2.222-.238-.716.156-1.46.238-2.222.238H68.148c-5.727 0-10.37-4.627-10.37-10.336 0-5.708 4.643-10.336 10.37-10.336H10.37C4.643 113.695 0 109.068 0 103.36c0-5.708 4.643-10.336 10.37-10.336h59.26c5.727 0 10.37-4.627 10.37-10.335 0-5.709-4.643-10.336-10.37-10.336H32.593c-5.728 0-10.37-4.628-10.37-10.336 0-5.709 4.642-10.336 10.37-10.336H271.11zm38.519 62.015c5.727 0 10.37 4.628 10.37 10.336 0 5.709-4.643 10.336-10.37 10.336-5.728 0-10.37-4.627-10.37-10.336 0-5.708 4.642-10.336 10.37-10.336z" opacity=".1" transform="translate(-560 -431) translate(560 431) translate(0 11.813)"></path><g><path fill="#F7F7F7" d="M122.686 2.098H10.057c-4.44 0-8.044 3.59-8.044 8.019V154.35c0 4.429 3.604 8.018 8.044 8.018h112.629c4.443 0 8.045-3.589 8.045-8.018V10.117c0-4.43-3.602-8.019-8.045-8.019" transform="translate(-560 -431) translate(560 431) translate(0 11.813) translate(94.815)"></path><path fill="#FFF" d="M117.323 2.005H10.057c-4.44 0-8.044 3.592-8.044 8.018v138.974h107.265c4.443 0 8.045-3.59 8.045-8.019V2.005z" transform="translate(-560 -431) translate(560 431) translate(0 11.813) translate(94.815)"></path><path fill="#D9D9D9" d="M10.057 4.01c-3.325 0-6.033 2.701-6.033 6.013V154.35c0 3.317 2.708 6.014 6.033 6.014h112.629c3.325 0 6.034-2.697 6.034-6.014V10.023c0-3.312-2.709-6.014-6.034-6.014H10.057zm112.629 160.363H10.057c-5.542 0-10.056-4.496-10.056-10.023V10.023C.001 4.5 4.515 0 10.057 0h112.629c5.543 0 10.056 4.5 10.056 10.023V154.35c0 5.527-4.513 10.023-10.056 10.023z" transform="translate(-560 -431) translate(560 431) translate(0 11.813) translate(94.815)"></path><path fill="#F7F7F7" d="M103.915 2.104H34.192v10.69c0 4.43 3.604 8.019 8.045 8.019H95.87c4.443 0 8.045-3.59 8.045-8.018V2.104z" transform="translate(-560 -431) translate(560 431) translate(0 11.813) translate(94.815)"></path><path fill="#FFF" d="M87.825 2.104H34.192v10.69c0 4.43 3.602 8.019 8.045 8.019h34.861c5.924 0 10.727-4.784 10.727-10.691V2.104z" transform="translate(-560 -431) translate(560 431) translate(0 11.813) translate(94.815)"></path><path fill="#D9D9D9" d="M36.203 4.108v8.687c0 3.316 2.709 6.013 6.034 6.013H95.87c3.325 0 6.033-2.697 6.033-6.013V4.108h-65.7zm59.667 18.71H42.237c-5.543 0-10.056-4.496-10.056-10.023V2.104c0-1.104.898-2.005 2.011-2.005h69.723c1.11 0 2.01.9 2.01 2.005v10.69c0 5.528-4.512 10.023-10.055 10.023z" transform="translate(-560 -431) translate(560 431) translate(0 11.813) translate(94.815)"></path><path fill="#F7F7F7" d="M23.518 52.8l5.363-.027c2.96-.014 5.353-2.416 5.337-5.37l-.027-5.345c-.01-2.95-2.424-5.335-5.385-5.322l-5.363.027c-2.963.013-5.353 2.419-5.34 5.372l.025 5.346c.016 2.95 2.427 5.332 5.39 5.319" transform="translate(-560 -431) translate(560 431) translate(0 11.813) translate(94.815)"></path><path fill="#D9D9D9" d="M28.834 38.744h-.019l-5.368.022c-1.843.01-3.342 1.518-3.334 3.362l.027 5.343c.005.892.357 1.729.992 2.357.636.63 1.5 1.005 2.376.965h.003l5.363-.022c1.845-.01 3.342-1.515 3.333-3.36l-.026-5.342c-.008-.893-.357-1.732-.993-2.36-.63-.623-1.466-.965-2.354-.965zm-5.345 16.058c-1.957 0-3.797-.751-5.188-2.125-1.398-1.382-2.175-3.223-2.183-5.19l-.027-5.343c-.019-4.05 3.277-7.366 7.34-7.388l5.365-.021c1.923.037 3.822.743 5.222 2.125 1.402 1.384 2.177 3.226 2.185 5.188l.027 5.345c.019 4.055-3.274 7.366-7.34 7.387l-5.363.022h-.038z" transform="translate(-560 -431) translate(560 431) translate(0 11.813) translate(94.815)"></path><path fill="#F7F7F7" d="M23.518 84.875l5.363-.024c2.96-.016 5.353-2.42 5.337-5.373l-.027-5.345c-.01-2.95-2.424-5.335-5.385-5.319l-5.363.024c-2.963.016-5.353 2.419-5.34 5.372l.025 5.346c.016 2.95 2.427 5.335 5.39 5.319" transform="translate(-560 -431) translate(560 431) translate(0 11.813) translate(94.815)"></path><path fill="#D9D9D9" d="M28.829 70.82h-.019l-5.358.026c-.895.003-1.735.356-2.368.99-.63.633-.978 1.475-.97 2.365l.026 5.345c.006.893.357 1.727.993 2.357.632.626 1.472.97 2.36.97h.016l5.363-.026c.895-.006 1.735-.356 2.362-.99.633-.633.98-1.477.974-2.37l-.027-5.343c-.008-.892-.357-1.729-.992-2.357-.63-.625-1.47-.967-2.36-.967zm-5.337 16.063c-1.957 0-3.797-.754-5.191-2.13-1.397-1.385-2.175-3.224-2.183-5.191l-.027-5.343c-.019-4.052 3.277-7.363 7.342-7.382l5.361-.027h.035c1.957 0 3.8.754 5.189 2.128 1.402 1.382 2.177 3.223 2.185 5.188l.027 5.34c.008 1.97-.75 3.816-2.134 5.214-1.39 1.393-3.234 2.168-5.208 2.176l-5.363.027c0-.003-.016 0-.033 0z" transform="translate(-560 -431) translate(560 431) translate(0 11.813) translate(94.815)"></path><path fill="#F7F7F7" d="M23.518 116.95l5.363-.024c2.96-.016 5.353-2.419 5.337-5.372l-.027-5.346c-.01-2.95-2.424-5.332-5.385-5.318l-5.363.024c-2.963.016-5.353 2.418-5.34 5.372l.025 5.345c.016 2.951 2.427 5.335 5.39 5.32" transform="translate(-560 -431) translate(560 431) translate(0 11.813) translate(94.815)"></path><path fill="#D9D9D9" d="M28.829 102.895h-.019l-5.358.026c-.895.006-1.735.356-2.368.99-.63.633-.978 1.477-.97 2.37l.026 5.343c.006.892.357 1.729.993 2.354.635.626 1.477 1.09 2.376.97l5.363-.026c.895-.005 1.735-.356 2.362-.989.633-.633.98-1.475.974-2.368l-.027-5.343c-.008-.895-.357-1.73-.992-2.36-.63-.623-1.47-.967-2.36-.967zm-5.337 16.063c-1.957 0-3.797-.757-5.191-2.128-1.397-1.384-2.175-3.223-2.183-5.19l-.027-5.343c-.008-1.964.748-3.811 2.137-5.21 1.387-1.392 3.234-2.167 5.205-2.175l5.361-.026h.035c4.05 0 7.356 3.276 7.374 7.317l.027 5.343c.008 1.967-.75 3.814-2.134 5.21-1.39 1.395-3.234 2.167-5.208 2.175l-5.363.027h-.033z" transform="translate(-560 -431) translate(560 431) translate(0 11.813) translate(94.815)"></path><path fill="#F7F7F7" d="M23.518 149.028l5.363-.027c2.96-.013 5.353-2.418 5.337-5.372l-.027-5.345c-.01-2.951-2.424-5.332-5.385-5.32l-5.363.028c-2.963.013-5.353 2.416-5.34 5.37l.025 5.345c.016 2.95 2.427 5.334 5.39 5.321" transform="translate(-560 -431) translate(560 431) translate(0 11.813) translate(94.815)"></path><path fill="#D9D9D9" d="M28.834 134.973h-.019l-5.368.021c-1.843.01-3.342 1.518-3.334 3.362l.027 5.343c.005.893.357 1.73.992 2.355.633.623 1.473.967 2.36.967h.016l5.364-.024c.895-.005 1.735-.355 2.365-.989.63-.633.976-1.475.97-2.368l-.026-5.342c-.008-.893-.357-1.732-.993-2.36-.63-.623-1.466-.965-2.354-.965zm-5.342 16.057c-1.957 0-3.797-.75-5.191-2.124-1.398-1.385-2.175-3.224-2.183-5.19l-.027-5.344c-.019-4.051 3.277-7.363 7.34-7.387l5.365-.021c1.923.053 3.822.745 5.222 2.124 1.402 1.385 2.177 3.226 2.185 5.19l.027 5.344c.008 1.964-.748 3.811-2.135 5.209-1.389 1.395-3.234 2.167-5.205 2.175l-5.363.024c0-.002-.019 0-.035 0zM109.278 40.749H85.146c-1.11 0-2.011-.898-2.011-2.005 0-1.106.9-2.004 2.01-2.004h24.133c1.11 0 2.011.898 2.011 2.004 0 1.107-.901 2.005-2.011 2.005M74.417 40.749H44.919c-1.113 0-2.012-.898-2.012-2.005 0-1.106.899-2.004 2.012-2.004h29.498c1.11 0 2.01.898 2.01 2.004 0 1.107-.9 2.005-2.01 2.005M90.509 52.776H71.735c-1.113 0-2.012-.898-2.012-2.005 0-1.106.899-2.004 2.012-2.004h18.774c1.107 0 2.011.898 2.011 2.004 0 1.107-.904 2.005-2.011 2.005M61.008 52.776h-16.09c-1.112 0-2.01-.898-2.01-2.005 0-1.106.898-2.004 2.01-2.004h16.09c1.11 0 2.012.898 2.012 2.004 0 1.107-.901 2.005-2.012 2.005M87.822 72.824h-20.11c-1.112 0-2.01-.898-2.01-2.004 0-1.107.898-2.005 2.01-2.005h20.11c1.11 0 2.011.898 2.011 2.005 0 1.106-.9 2.004-2.01 2.004M56.986 72.824H44.919c-1.113 0-2.012-.898-2.012-2.004 0-1.107.899-2.005 2.012-2.005h12.067c1.11 0 2.011.898 2.011 2.005 0 1.106-.9 2.004-2.011 2.004M69.05 84.851H44.92c-1.113 0-2.012-.898-2.012-2.004 0-1.107.899-2.005 2.012-2.005H69.05c1.11 0 2.01.898 2.01 2.005 0 1.106-.9 2.004-2.01 2.004M74.414 104.902H44.919c-1.113 0-2.012-.9-2.012-2.005 0-1.106.899-2.004 2.012-2.004h29.495c1.11 0 2.011.898 2.011 2.004 0 1.104-.9 2.005-2.011 2.005M63.687 116.93H44.92c-1.113 0-2.012-.902-2.012-2.005 0-1.107.899-2.005 2.012-2.005h18.768c1.11 0 2.012.898 2.012 2.005 0 1.103-.901 2.004-2.012 2.004M74.084 136.977H44.918c-1.112 0-2.01-.898-2.01-2.004 0-1.107.898-2.005 2.01-2.005h29.166c1.107 0 2.011.898 2.011 2.005 0 1.106-.904 2.004-2.011 2.004M63.687 149.005H44.92c-1.113 0-2.012-.898-2.012-2.005 0-1.107.899-2.005 2.012-2.005h18.768c1.11 0 2.012.898 2.012 2.005 0 1.107-.901 2.005-2.012 2.005" transform="translate(-560 -431) translate(560 431) translate(0 11.813) translate(94.815)"></path><g transform="translate(-560 -431) translate(560 431) translate(0 11.813) translate(94.815) translate(160.898 5.006)"><mask id="rhdtlaa5kb" fill="#fff"><use xlink:href="#se15e0ln4a"></use></mask><path fill="#D9D9D9" d="M12.742 4.448H2.015c-1.11 0-2.011-.895-2.011-2.005C.004 1.34.904.44 2.015.44h10.727c1.107 0 2.01.9 2.01 2.004 0 1.11-.903 2.005-2.01 2.005" mask="url(#rhdtlaa5kb)"></path></g><path fill="#D9D9D9" d="M168.276 14.8c-1.11 0-2.011-.896-2.011-2.005V2.104c0-1.104.9-2.005 2.011-2.005 1.108 0 2.011.9 2.011 2.005v10.69c0 1.11-.903 2.005-2.01 2.005M154.866 36.186h-10.727c-1.113 0-2.011-.898-2.011-2.004 0-1.107.898-2.005 2.011-2.005h10.727c1.11 0 2.01.898 2.01 2.005 0 1.106-.9 2.004-2.01 2.004" transform="translate(-560 -431) translate(560 431) translate(0 11.813) translate(94.815)"></path><path fill="#D9D9D9" d="M149.502 41.532c-1.113 0-2.01-.899-2.01-2.005v-10.69c0-1.107.897-2.005 2.01-2.005 1.11 0 2.011.898 2.011 2.004v10.691c0 1.106-.9 2.005-2.01 2.005" transform="translate(-560 -431) translate(560 431) translate(0 11.813) translate(94.815)"></path><g transform="translate(-560 -431) translate(560 431) translate(0 11.813) translate(94.815) translate(160.898 50.442)"><mask id="i0ajjl228d" fill="#fff"><use xlink:href="#u8lytpv2uc"></use></mask><path fill="#D9D9D9" d="M12.742 4.456H2.015C.905 4.456.004 3.558.004 2.45c0-1.109.9-2.004 2.011-2.004h10.727c1.107 0 2.01.895 2.01 2.004 0 1.107-.903 2.005-2.01 2.005" mask="url(#i0ajjl228d)"></path></g><path fill="#D9D9D9" d="M168.276 60.243c-1.11 0-2.011-.898-2.011-2.004V47.548c0-1.11.9-2.005 2.011-2.005 1.108 0 2.011.896 2.011 2.005v10.69c0 1.107-.903 2.005-2.01 2.005" transform="translate(-560 -431) translate(560 431) translate(0 11.813) translate(94.815)"></path></g></g></g></g></g></svg>